<?xml version="1.0" encoding="UTF-8"?>
<svg id="Ebene_1" data-name="Ebene 1" xmlns="http://www.w3.org/2000/svg" viewBox="0 0 529.6 529.59">
  <defs>
    <style>
      .cls-1 {
        fill: #373543;
      }
    </style>
  </defs>
  <path class="cls-1" d="m451.25,451.24h-78.47v-122.89c0-29.3-.52-67.03-40.81-67.03s-47.12,31.93-47.12,64.89v125.01h-78.47v-252.71h75.33v34.54h1.05c15.36-26.26,43.92-41.95,74.33-40.82,79.53,0,94.2,52.31,94.2,120.37l-.03,138.63ZM117.83,163.98c-25.15,0-45.54-20.38-45.55-45.53,0-25.15,20.38-45.54,45.53-45.55,25.15,0,45.54,20.38,45.55,45.53s-20.38,45.54-45.53,45.55h0m39.24,287.26h-78.55v-252.72h78.55v252.72ZM490.37.04H39.08C17.75-.2.26,16.88,0,38.21v453.16c.25,21.34,17.74,38.44,39.08,38.21h451.29c21.38.27,38.94-16.83,39.24-38.21V38.18C529.3,16.81,511.74-.28,490.37,0"/>
</svg>